<svg width="24" height="24" viewBox="0 0 24 24" fill="none" xmlns="http://www.w3.org/2000/svg">
<g clip-path="url(#clip0_51_1629)">
<path d="M2.34755 0H21.6275L21.6453 0.00857189C21.8187 0.0903586 22.0748 0.135005 22.2661 0.214346C22.9795 0.512597 23.538 1.09208 23.8102 1.81592C23.8807 2.00626 23.9339 2.253 24 2.42105V21.6007L23.9923 21.6191C23.9102 21.8153 23.8748 22.0507 23.7902 22.2498C23.4963 22.9424 22.9645 23.475 22.2793 23.7834C22.1361 23.8479 21.7312 23.9388 21.6325 24H2.373C2.29483 23.9573 2.02878 23.8828 1.9268 23.8514C1.18794 23.6238 0.553889 23.0323 0.236196 22.3324C0.147562 22.1372 0.100277 21.8433 0.00670148 21.6453C0.00446766 21.6414 0.00223383 21.6375 0 21.6335V2.34895C0.0929979 2.19341 0.13883 1.90605 0.211421 1.735C0.494604 1.06772 1.032 0.505936 1.70174 0.221106C1.8998 0.136872 2.16544 0.0887355 2.33173 0.00786436L2.34755 0ZM12.9347 22.1231L12.9372 14.5053C12.2624 14.5373 11.5353 14.4915 10.8556 14.5091C10.6878 14.5135 10.265 14.4963 10.1295 14.523C10.1234 13.6242 10.0937 12.4455 10.1343 11.5592C10.3858 11.5869 10.8643 11.574 11.139 11.5738L12.9344 11.5738C12.961 9.57523 12.6694 8.00981 14.2629 6.44327C15.6641 5.06578 17.2975 5.22509 19.1144 5.25375C19.1349 5.25405 19.1554 5.25464 19.1759 5.25548C19.1545 6.15171 19.1559 7.2626 19.1722 8.16234C18.4794 8.16237 17.0047 8.05296 16.4581 8.39006C15.7669 8.92713 15.8398 9.4392 15.8422 10.2353L15.8471 11.5664C16.97 11.5748 18.0928 11.5776 19.2157 11.5747C19.0624 12.5486 18.9018 13.5214 18.7341 14.4929C18.2583 14.5324 17.5985 14.4962 17.1041 14.5088C16.8591 14.5151 16.0496 14.5346 15.8523 14.4892C15.8322 15.2238 15.8509 15.973 15.8446 16.7093C15.8293 18.5078 15.8648 20.3232 15.8445 22.1203L19.5641 22.1229C20.1476 22.1231 20.7674 22.1516 21.3469 22.0986C21.7345 22.0631 22.0929 21.6577 22.1106 21.2733C22.1395 20.5745 22.1265 19.8659 22.126 19.165L22.1254 15.1078L22.1253 7.02776C22.1383 5.71097 22.1387 4.39409 22.1265 3.0773C22.1093 1.72095 21.3075 1.88262 20.264 1.88216L18.821 1.8819L14.1936 1.88266L6.71041 1.88221C5.4852 1.88214 4.13555 1.85406 2.91799 1.88448C2.90414 1.88481 2.89029 1.88524 2.87644 1.88576C1.65759 1.97883 1.87564 2.96379 1.87579 3.88205L1.87599 5.95462L1.87668 12.5264L1.877 18.4173L1.87572 20.1901C1.87299 20.9048 1.69273 22.0166 2.73338 22.1119C3.12059 22.1474 3.55943 22.1258 3.95114 22.1256L6.21605 22.1242C8.44186 22.1232 10.7134 22.1478 12.9347 22.1231Z" fill="#6D6D6D"></path>
</g>
<defs>
<clipPath id="clip0_51_1629">
<rect width="24" height="24" fill="white"></rect>
</clipPath>
</defs>
</svg>